<svg width="542" height="422" viewBox="0 0 542 422" fill="none" xmlns="http://www.w3.org/2000/svg">
<rect width="542" height="422" fill="white"/>
<circle cx="297" cy="155" r="43" fill="#F2994A"/>
<circle cx="414.5" cy="50.5" r="25.5" fill="#2D9CDB"/>
<circle cx="490.5" cy="366.5" r="25.5" fill="#2D9CDB"/>
<circle cx="86.5" cy="86.5" r="25.5" fill="#2D9CDB"/>
<path d="M297 155L415 50" stroke="black" stroke-width="3" stroke-linecap="round"/>
<path d="M86.4663 84.5743C85.6789 84.3168 84.8318 84.7464 84.5743 85.5338C84.3168 86.3212 84.7464 87.1682 85.5338 87.4257L86.4663 84.5743ZM297.466 153.574L86.4663 84.5743L85.5338 87.4257L296.534 156.426L297.466 153.574Z" fill="black"/>
<path d="M297 155L491 367" stroke="black" stroke-width="3" stroke-linecap="round"/>
<path d="M298.845 153.313C297.913 152.294 296.332 152.223 295.313 153.155C294.294 154.087 294.223 155.668 295.155 156.687L298.845 153.313ZM360.888 227.497C362.268 227.559 363.436 226.491 363.497 225.112L364.504 202.634C364.566 201.255 363.498 200.087 362.118 200.025C360.739 199.963 359.571 201.031 359.509 202.411L358.614 222.391L338.634 221.496C337.255 221.434 336.087 222.502 336.025 223.882C335.963 225.261 337.031 226.429 338.411 226.491L360.888 227.497ZM295.155 156.687L359.155 226.687L362.845 223.313L298.845 153.313L295.155 156.687Z" fill="#EE0000"/>
<path d="M295.339 153.164C294.307 154.082 294.214 155.662 295.132 156.694C296.049 157.725 297.63 157.818 298.661 156.9L295.339 153.164ZM370.368 92.1461C370.449 90.7678 369.397 89.585 368.019 89.5043L345.557 88.1891C344.179 88.1084 342.996 89.1603 342.915 90.5387C342.835 91.917 343.887 93.0998 345.265 93.1805L365.231 94.3496L364.062 114.315C363.981 115.694 365.033 116.877 366.411 116.957C367.79 117.038 368.973 115.986 369.053 114.608L370.368 92.1461ZM298.661 156.9L369.534 93.8681L366.211 90.1319L295.339 153.164L298.661 156.9Z" fill="#EE0000"/>
<path d="M296.333 156.967C297.645 157.398 299.057 156.684 299.488 155.372C299.919 154.06 299.205 152.648 297.893 152.217L296.333 156.967ZM205.872 122.769C204.64 123.392 204.146 124.896 204.769 126.128L214.921 146.208C215.544 147.44 217.048 147.934 218.28 147.311C219.512 146.688 220.006 145.184 219.383 143.952L210.359 126.103L228.208 117.079C229.44 116.456 229.934 114.952 229.311 113.72C228.688 112.488 227.184 111.994 225.952 112.617L205.872 122.769ZM297.893 152.217L207.78 122.625L206.22 127.375L296.333 156.967L297.893 152.217Z" fill="#EE0000"/>
<path d="M259.33 205.406L267.697 226.289L276.064 205.406H280.441V231H277.066V221.033L277.383 210.275L268.98 231H266.396L258.012 210.328L258.346 221.033V231H254.971V205.406H259.33Z" fill="#F2994A"/>
<path d="M34.5195 116.98L34.6074 119.09C36.002 117.449 37.8828 116.629 40.25 116.629C42.9102 116.629 44.7207 117.648 45.6816 119.688C46.3145 118.773 47.1348 118.035 48.1426 117.473C49.1621 116.91 50.3633 116.629 51.7461 116.629C55.918 116.629 58.0391 118.838 58.1094 123.256V136H54.8574V123.449C54.8574 122.09 54.5469 121.076 53.9258 120.408C53.3047 119.729 52.2617 119.389 50.7969 119.389C49.5898 119.389 48.5879 119.752 47.791 120.479C46.9941 121.193 46.5312 122.16 46.4023 123.379V136H43.1328V123.537C43.1328 120.771 41.7793 119.389 39.0723 119.389C36.9395 119.389 35.4805 120.297 34.6953 122.113V136H31.4434V116.98H34.5195ZM66.9775 136H65.3428V125.163L62.0645 126.367V124.891L66.7227 123.142H66.9775V136Z" fill="#2D9CDB"/>
<path d="M233.354 107.352C230.775 107.352 228.678 106.508 227.061 104.82C225.443 103.121 224.635 100.854 224.635 98.0176V97.4199C224.635 95.5332 224.992 93.8516 225.707 92.375C226.434 90.8867 227.441 89.7266 228.73 88.8945C230.031 88.0508 231.438 87.6289 232.949 87.6289C235.422 87.6289 237.344 88.4434 238.715 90.0723C240.086 91.7012 240.771 94.0332 240.771 97.0684V98.4219H227.887C227.934 100.297 228.479 101.814 229.521 102.975C230.576 104.123 231.912 104.697 233.529 104.697C234.678 104.697 235.65 104.463 236.447 103.994C237.244 103.525 237.941 102.904 238.539 102.131L240.525 103.678C238.932 106.127 236.541 107.352 233.354 107.352ZM232.949 90.3008C231.637 90.3008 230.535 90.7812 229.645 91.7422C228.754 92.6914 228.203 94.0273 227.992 95.75H237.52V95.5039C237.426 93.8516 236.98 92.5742 236.184 91.6719C235.387 90.7578 234.309 90.3008 232.949 90.3008ZM248.497 107H246.862V96.1631L243.584 97.3672V95.8906L248.242 94.1416H248.497V107Z" fill="#EE0000"/>
<path d="M148.654 78.8984C148.162 78.8164 147.629 78.7754 147.055 78.7754C144.922 78.7754 143.475 79.6836 142.713 81.5V95H139.461V75.9805H142.625L142.678 78.1777C143.744 76.4785 145.256 75.6289 147.213 75.6289C147.846 75.6289 148.326 75.7109 148.654 75.875V78.8984ZM155.606 95H153.972V84.1631L150.693 85.3672V83.8906L155.352 82.1416H155.606V95Z" fill="black"/>
<path d="M373.654 56.8984C373.162 56.8164 372.629 56.7754 372.055 56.7754C369.922 56.7754 368.475 57.6836 367.713 59.5V73H364.461V53.9805H367.625L367.678 56.1777C368.744 54.4785 370.256 53.6289 372.213 53.6289C372.846 53.6289 373.326 53.7109 373.654 53.875V56.8984ZM383.647 73H375.263V71.8311L379.692 66.9092C380.349 66.165 380.8 65.5615 381.046 65.0986C381.298 64.6299 381.424 64.1465 381.424 63.6484C381.424 62.9805 381.222 62.4326 380.817 62.0049C380.413 61.5771 379.874 61.3633 379.2 61.3633C378.392 61.3633 377.762 61.5947 377.311 62.0576C376.865 62.5146 376.643 63.1533 376.643 63.9736H375.017C375.017 62.7959 375.395 61.8438 376.15 61.1172C376.912 60.3906 377.929 60.0273 379.2 60.0273C380.39 60.0273 381.33 60.3408 382.021 60.9678C382.713 61.5889 383.059 62.418 383.059 63.4551C383.059 64.7148 382.256 66.2148 380.65 67.9551L377.223 71.6729H383.647V73Z" fill="black"/>
<path d="M439.654 277.898C439.162 277.816 438.629 277.775 438.055 277.775C435.922 277.775 434.475 278.684 433.713 280.5V294H430.461V274.98H433.625L433.678 277.178C434.744 275.479 436.256 274.629 438.213 274.629C438.846 274.629 439.326 274.711 439.654 274.875V277.898ZM443.627 286.811H444.849C445.616 286.799 446.22 286.597 446.659 286.204C447.099 285.812 447.318 285.281 447.318 284.613C447.318 283.113 446.571 282.363 445.077 282.363C444.374 282.363 443.812 282.565 443.39 282.97C442.974 283.368 442.766 283.898 442.766 284.561H441.14C441.14 283.547 441.509 282.706 442.247 282.038C442.991 281.364 443.935 281.027 445.077 281.027C446.284 281.027 447.23 281.347 447.916 281.985C448.602 282.624 448.944 283.512 448.944 284.648C448.944 285.205 448.763 285.744 448.399 286.266C448.042 286.787 447.553 287.177 446.932 287.435C447.635 287.657 448.177 288.026 448.558 288.542C448.944 289.058 449.138 289.688 449.138 290.432C449.138 291.58 448.763 292.491 448.013 293.165C447.263 293.839 446.287 294.176 445.086 294.176C443.885 294.176 442.906 293.851 442.15 293.2C441.4 292.55 441.025 291.691 441.025 290.625H442.66C442.66 291.299 442.88 291.838 443.319 292.242C443.759 292.646 444.348 292.849 445.086 292.849C445.871 292.849 446.472 292.644 446.888 292.233C447.304 291.823 447.512 291.234 447.512 290.467C447.512 289.723 447.283 289.151 446.826 288.753C446.369 288.354 445.71 288.149 444.849 288.138H443.627V286.811Z" fill="black"/>
<path d="M369.354 145.352C366.775 145.352 364.678 144.508 363.061 142.82C361.443 141.121 360.635 138.854 360.635 136.018V135.42C360.635 133.533 360.992 131.852 361.707 130.375C362.434 128.887 363.441 127.727 364.73 126.895C366.031 126.051 367.438 125.629 368.949 125.629C371.422 125.629 373.344 126.443 374.715 128.072C376.086 129.701 376.771 132.033 376.771 135.068V136.422H363.887C363.934 138.297 364.479 139.814 365.521 140.975C366.576 142.123 367.912 142.697 369.529 142.697C370.678 142.697 371.65 142.463 372.447 141.994C373.244 141.525 373.941 140.904 374.539 140.131L376.525 141.678C374.932 144.127 372.541 145.352 369.354 145.352ZM368.949 128.301C367.637 128.301 366.535 128.781 365.645 129.742C364.754 130.691 364.203 132.027 363.992 133.75H373.52V133.504C373.426 131.852 372.98 130.574 372.184 129.672C371.387 128.758 370.309 128.301 368.949 128.301ZM387.538 145H379.153V143.831L383.583 138.909C384.239 138.165 384.69 137.562 384.937 137.099C385.188 136.63 385.314 136.146 385.314 135.648C385.314 134.98 385.112 134.433 384.708 134.005C384.304 133.577 383.765 133.363 383.091 133.363C382.282 133.363 381.652 133.595 381.201 134.058C380.756 134.515 380.533 135.153 380.533 135.974H378.907C378.907 134.796 379.285 133.844 380.041 133.117C380.803 132.391 381.819 132.027 383.091 132.027C384.28 132.027 385.221 132.341 385.912 132.968C386.604 133.589 386.949 134.418 386.949 135.455C386.949 136.715 386.146 138.215 384.541 139.955L381.113 143.673H387.538V145Z" fill="#EE0000"/>
<path d="M335.354 252.352C332.775 252.352 330.678 251.508 329.061 249.82C327.443 248.121 326.635 245.854 326.635 243.018V242.42C326.635 240.533 326.992 238.852 327.707 237.375C328.434 235.887 329.441 234.727 330.73 233.895C332.031 233.051 333.438 232.629 334.949 232.629C337.422 232.629 339.344 233.443 340.715 235.072C342.086 236.701 342.771 239.033 342.771 242.068V243.422H329.887C329.934 245.297 330.479 246.814 331.521 247.975C332.576 249.123 333.912 249.697 335.529 249.697C336.678 249.697 337.65 249.463 338.447 248.994C339.244 248.525 339.941 247.904 340.539 247.131L342.525 248.678C340.932 251.127 338.541 252.352 335.354 252.352ZM334.949 235.301C333.637 235.301 332.535 235.781 331.645 236.742C330.754 237.691 330.203 239.027 329.992 240.75H339.52V240.504C339.426 238.852 338.98 237.574 338.184 236.672C337.387 235.758 336.309 235.301 334.949 235.301ZM347.518 244.811H348.739C349.507 244.799 350.11 244.597 350.55 244.204C350.989 243.812 351.209 243.281 351.209 242.613C351.209 241.113 350.462 240.363 348.968 240.363C348.265 240.363 347.702 240.565 347.28 240.97C346.864 241.368 346.656 241.898 346.656 242.561H345.03C345.03 241.547 345.399 240.706 346.138 240.038C346.882 239.364 347.825 239.027 348.968 239.027C350.175 239.027 351.121 239.347 351.807 239.985C352.492 240.624 352.835 241.512 352.835 242.648C352.835 243.205 352.653 243.744 352.29 244.266C351.933 244.787 351.443 245.177 350.822 245.435C351.525 245.657 352.067 246.026 352.448 246.542C352.835 247.058 353.028 247.688 353.028 248.432C353.028 249.58 352.653 250.491 351.903 251.165C351.153 251.839 350.178 252.176 348.977 252.176C347.775 252.176 346.797 251.851 346.041 251.2C345.291 250.55 344.916 249.691 344.916 248.625H346.551C346.551 249.299 346.771 249.838 347.21 250.242C347.649 250.646 348.238 250.849 348.977 250.849C349.762 250.849 350.362 250.644 350.778 250.233C351.194 249.823 351.402 249.234 351.402 248.467C351.402 247.723 351.174 247.151 350.717 246.753C350.26 246.354 349.601 246.149 348.739 246.138H347.518V244.811Z" fill="#EE0000"/>
<path d="M435.52 78.9805L435.607 81.0898C437.002 79.4492 438.883 78.6289 441.25 78.6289C443.91 78.6289 445.721 79.6484 446.682 81.6875C447.314 80.7734 448.135 80.0352 449.143 79.4727C450.162 78.9102 451.363 78.6289 452.746 78.6289C456.918 78.6289 459.039 80.8379 459.109 85.2559V98H455.857V85.4492C455.857 84.0898 455.547 83.0762 454.926 82.4082C454.305 81.7285 453.262 81.3887 451.797 81.3887C450.59 81.3887 449.588 81.752 448.791 82.4785C447.994 83.1934 447.531 84.1602 447.402 85.3789V98H444.133V85.5371C444.133 82.7715 442.779 81.3887 440.072 81.3887C437.939 81.3887 436.48 82.2969 435.695 84.1133V98H432.443V78.9805H435.52ZM471.019 98H462.634V96.8311L467.063 91.9092C467.72 91.165 468.171 90.5615 468.417 90.0986C468.669 89.6299 468.795 89.1465 468.795 88.6484C468.795 87.9805 468.593 87.4326 468.188 87.0049C467.784 86.5771 467.245 86.3633 466.571 86.3633C465.763 86.3633 465.133 86.5947 464.682 87.0576C464.236 87.5146 464.014 88.1533 464.014 88.9736H462.388C462.388 87.7959 462.766 86.8438 463.521 86.1172C464.283 85.3906 465.3 85.0273 466.571 85.0273C467.761 85.0273 468.701 85.3408 469.393 85.9678C470.084 86.5889 470.43 87.418 470.43 88.4551C470.43 89.7148 469.627 91.2148 468.021 92.9551L464.594 96.6729H471.019V98Z" fill="#2D9CDB"/>
<path d="M428.52 384.98L428.607 387.09C430.002 385.449 431.883 384.629 434.25 384.629C436.91 384.629 438.721 385.648 439.682 387.688C440.314 386.773 441.135 386.035 442.143 385.473C443.162 384.91 444.363 384.629 445.746 384.629C449.918 384.629 452.039 386.838 452.109 391.256V404H448.857V391.449C448.857 390.09 448.547 389.076 447.926 388.408C447.305 387.729 446.262 387.389 444.797 387.389C443.59 387.389 442.588 387.752 441.791 388.479C440.994 389.193 440.531 390.16 440.402 391.379V404H437.133V391.537C437.133 388.771 435.779 387.389 433.072 387.389C430.939 387.389 429.48 388.297 428.695 390.113V404H425.443V384.98H428.52ZM457.998 396.811H459.22C459.987 396.799 460.591 396.597 461.03 396.204C461.47 395.812 461.689 395.281 461.689 394.613C461.689 393.113 460.942 392.363 459.448 392.363C458.745 392.363 458.183 392.565 457.761 392.97C457.345 393.368 457.137 393.898 457.137 394.561H455.511C455.511 393.547 455.88 392.706 456.618 392.038C457.362 391.364 458.306 391.027 459.448 391.027C460.655 391.027 461.602 391.347 462.287 391.985C462.973 392.624 463.315 393.512 463.315 394.648C463.315 395.205 463.134 395.744 462.771 396.266C462.413 396.787 461.924 397.177 461.303 397.435C462.006 397.657 462.548 398.026 462.929 398.542C463.315 399.058 463.509 399.688 463.509 400.432C463.509 401.58 463.134 402.491 462.384 403.165C461.634 403.839 460.658 404.176 459.457 404.176C458.256 404.176 457.277 403.851 456.521 403.2C455.771 402.55 455.396 401.691 455.396 400.625H457.031C457.031 401.299 457.251 401.838 457.69 402.242C458.13 402.646 458.719 402.849 459.457 402.849C460.242 402.849 460.843 402.644 461.259 402.233C461.675 401.823 461.883 401.234 461.883 400.467C461.883 399.723 461.654 399.151 461.197 398.753C460.74 398.354 460.081 398.149 459.22 398.138H457.998V396.811Z" fill="#2D9CDB"/>
</svg>
