<svg aria-hidden="true" focusable="false" data-prefix="fab" data-icon="wikipedia-w" role="img" xmlns="http://www.w3.org/2000/svg" viewBox="0 0 45 36"><path fill="white" d="m22.608,34.545h-16.5v-32h12.5v2.5h-5l-6.5,14.5h3v5l12.5,10h16.5v-32h-12.5v2.5h5l6.5,14.5h-3v5l-12.5,10"/><path fill="white" d="m22.608,34.545c-9,0 -16.3,-7.3 -16.3,-16.3 0,-7.2 4.7,-13.3 11.14,-15.46 0.82,-0.15 1.1,0.35 1.1,0.8 0,0.4 -0,1.4 -0,2.8 -4.5,-1 -5.5,2.2 -5.5,2.2 -0.7,1.9 -1.8,2.4 -1.8,2.4 -1.5,1 0.1,1 0.1,1 1.6,-0.1 2.5,-1.7 2.5,-1.7 1.5,-2.5 3.8,-1.8 4.7,-1.4 0.15,1 0.6,1.8 1,2.2 -3.6,0.4 -7.4,1.8 -7.4,8 0,1.8 0.6,3.2 1.7,4.4 -0.2,0.4 -0.7,2 0.2,4.3 0,0 1.4,0.4 4.5,-1.7 1.3,0.4 2.7,0.5 4,0.5 1.4,-0 2.8,-0.2 4,-0.6 3.1,2.1 4.5,1.7 4.5,1.7 0.9,-2.2 0.3,-3.9 0.2,-4.3 1,-1.14 1.7,-2.6 1.7,-4.4 0,-6.26 -3.8,-7.6 -7.4,-8 0.6,-0.5 1.1,-1.5 1.1,-3 0,-2.2 -0,-3.9 -0,-4.5 0,-0.4 0.3,-0.9 1.1,-0.8 6.5,2.2 11.1,8.3 11.1,15.5 0,9 -7.3,16.3 -16.3,16.3"></path></svg>
