<?xml version="1.0" standalone="no"?>
<!DOCTYPE svg PUBLIC "-//W3C//DTD SVG 20010904//EN"
 "http://www.w3.org/TR/2001/REC-SVG-20010904/DTD/svg10.dtd">
<svg version="1.0" xmlns="http://www.w3.org/2000/svg"
 width="256.000000pt" height="256.000000pt" viewBox="0 0 256.000000 256.000000"
 preserveAspectRatio="xMidYMid meet">
<metadata>
Created by potrace 1.11, written by Peter Selinger 2001-2013
</metadata>
<g transform="translate(0.000000,256.000000) scale(0.100000,-0.100000)"
fill="#000000" stroke="none">
<path d="M1140 2469 c-412 -48 -785 -321 -951 -697 -205 -466 -105 -992 257
-1348 335 -331 839 -430 1284 -253 277 110 521 345 641 617 205 466 105 992
-257 1348 -190 188 -441 305 -714 334 -109 11 -155 11 -260 -1z m329 -415 c37
-9 113 -38 171 -66 93 -45 115 -61 200 -147 85 -85 102 -108 147 -201 65 -133
86 -216 87 -350 1 -137 -23 -238 -84 -365 -99 -206 -295 -362 -525 -420 -95
-24 -256 -25 -360 -1 -239 53 -446 222 -549 448 -52 113 -70 196 -70 328 0
143 19 220 86 360 45 94 61 114 147 200 103 102 194 158 321 199 133 43 291
48 429 15z"/>
<path d="M1143 1661 c-104 -38 -174 -103 -230 -212 -26 -50 -28 -63 -28 -169
0 -107 2 -119 29 -175 37 -74 113 -151 191 -190 56 -28 67 -30 175 -30 107 0
119 2 175 29 74 37 151 113 190 191 28 56 30 67 30 175 0 107 -2 119 -29 175
-37 75 -114 151 -191 189 -52 26 -73 30 -160 33 -80 3 -111 -1 -152 -16z"/>
</g>
</svg>
