<svg width="299" height="456" viewBox="0 0 299 456" fill="none" xmlns="http://www.w3.org/2000/svg">
<rect width="299" height="456" fill="white"/>
<rect x="50" y="342" width="200" height="60" rx="6" fill="#65B0ED"/>
<path d="M122.525 379.173L129.838 358.061H133.529L124.037 383.655H121.049L111.574 358.061H115.248L122.525 379.173ZM139.998 383.655H136.746V364.636H139.998V383.655ZM136.482 359.591C136.482 359.063 136.641 358.618 136.957 358.255C137.285 357.892 137.766 357.71 138.398 357.71C139.031 357.71 139.512 357.892 139.84 358.255C140.168 358.618 140.332 359.063 140.332 359.591C140.332 360.118 140.168 360.558 139.84 360.909C139.512 361.261 139.031 361.436 138.398 361.436C137.766 361.436 137.285 361.261 136.957 360.909C136.641 360.558 136.482 360.118 136.482 359.591ZM153.111 384.007C150.533 384.007 148.436 383.163 146.818 381.475C145.201 379.776 144.393 377.509 144.393 374.673V374.075C144.393 372.188 144.75 370.507 145.465 369.03C146.191 367.542 147.199 366.382 148.488 365.55C149.789 364.706 151.195 364.284 152.707 364.284C155.18 364.284 157.102 365.099 158.473 366.727C159.844 368.356 160.529 370.688 160.529 373.724V375.077H147.645C147.691 376.952 148.236 378.47 149.279 379.63C150.334 380.778 151.67 381.352 153.287 381.352C154.436 381.352 155.408 381.118 156.205 380.649C157.002 380.181 157.699 379.559 158.297 378.786L160.283 380.333C158.689 382.782 156.299 384.007 153.111 384.007ZM152.707 366.956C151.395 366.956 150.293 367.436 149.402 368.397C148.512 369.347 147.961 370.683 147.75 372.405H157.277V372.159C157.184 370.507 156.738 369.229 155.941 368.327C155.145 367.413 154.066 366.956 152.707 366.956ZM181.148 379.173L184.805 364.636H188.057L182.52 383.655H179.883L175.26 369.241L170.76 383.655H168.123L162.604 364.636H165.838L169.582 378.874L174.012 364.636H176.631L181.148 379.173Z" fill="black"/>
<rect x="50" y="46" width="200" height="60" rx="6" fill="#99C27C"/>
<path d="M92.959 84.2977C92.0918 85.5399 90.8789 86.4716 89.3203 87.0927C87.7734 87.702 85.9688 88.0067 83.9062 88.0067C81.8203 88.0067 79.9688 87.5204 78.3516 86.5477C76.7344 85.5634 75.4805 84.1688 74.5898 82.3642C73.7109 80.5595 73.2598 78.4677 73.2363 76.0888V73.8563C73.2363 70.0009 74.1328 67.0126 75.9258 64.8915C77.7305 62.7704 80.2617 61.7099 83.5195 61.7099C86.1914 61.7099 88.3418 62.3954 89.9707 63.7665C91.5996 65.1259 92.5957 67.0595 92.959 69.5673H89.584C88.9512 66.1806 86.9355 64.4872 83.5371 64.4872C81.2754 64.4872 79.5586 65.2841 78.3867 66.8778C77.2266 68.4599 76.6406 70.7567 76.6289 73.7684V75.8602C76.6289 78.7313 77.2852 81.0165 78.5977 82.7157C79.9102 84.4032 81.6855 85.247 83.9238 85.247C85.1895 85.247 86.2969 85.1063 87.2461 84.8251C88.1953 84.5438 88.9805 84.0692 89.6016 83.4013V77.6532H83.6777V74.911H92.959V84.2977ZM105.984 88.0067C103.406 88.0067 101.309 87.163 99.6914 85.4755C98.0742 83.7763 97.2656 81.5087 97.2656 78.6727V78.0751C97.2656 76.1884 97.623 74.5067 98.3379 73.0302C99.0645 71.5419 100.072 70.3817 101.361 69.5497C102.662 68.7059 104.068 68.2841 105.58 68.2841C108.053 68.2841 109.975 69.0985 111.346 70.7274C112.717 72.3563 113.402 74.6884 113.402 77.7235V79.077H100.518C100.564 80.952 101.109 82.4696 102.152 83.6298C103.207 84.7782 104.543 85.3524 106.16 85.3524C107.309 85.3524 108.281 85.1181 109.078 84.6493C109.875 84.1806 110.572 83.5595 111.17 82.786L113.156 84.3329C111.562 86.7821 109.172 88.0067 105.984 88.0067ZM105.58 70.9559C104.268 70.9559 103.166 71.4364 102.275 72.3974C101.385 73.3466 100.834 74.6825 100.623 76.4052H110.15V76.1591C110.057 74.5067 109.611 73.2294 108.814 72.327C108.018 71.413 106.939 70.9559 105.58 70.9559ZM120.258 68.6356L120.363 71.0263C121.816 69.1981 123.715 68.2841 126.059 68.2841C130.078 68.2841 132.105 70.5517 132.141 75.0868V87.6552H128.889V75.0692C128.877 73.6981 128.561 72.6845 127.939 72.0282C127.33 71.372 126.375 71.0438 125.074 71.0438C124.02 71.0438 123.094 71.3251 122.297 71.8876C121.5 72.4501 120.879 73.1884 120.434 74.1024V87.6552H117.182V68.6356H120.258ZM144.938 88.0067C142.359 88.0067 140.262 87.163 138.645 85.4755C137.027 83.7763 136.219 81.5087 136.219 78.6727V78.0751C136.219 76.1884 136.576 74.5067 137.291 73.0302C138.018 71.5419 139.025 70.3817 140.314 69.5497C141.615 68.7059 143.021 68.2841 144.533 68.2841C147.006 68.2841 148.928 69.0985 150.299 70.7274C151.67 72.3563 152.355 74.6884 152.355 77.7235V79.077H139.471C139.518 80.952 140.062 82.4696 141.105 83.6298C142.16 84.7782 143.496 85.3524 145.113 85.3524C146.262 85.3524 147.234 85.1181 148.031 84.6493C148.828 84.1806 149.525 83.5595 150.123 82.786L152.109 84.3329C150.516 86.7821 148.125 88.0067 144.938 88.0067ZM144.533 70.9559C143.221 70.9559 142.119 71.4364 141.229 72.3974C140.338 73.3466 139.787 74.6825 139.576 76.4052H149.104V76.1591C149.01 74.5067 148.564 73.2294 147.768 72.327C146.971 71.413 145.893 70.9559 144.533 70.9559ZM165.328 71.5536C164.836 71.4716 164.303 71.4306 163.729 71.4306C161.596 71.4306 160.148 72.3388 159.387 74.1552V87.6552H156.135V68.6356H159.299L159.352 70.8329C160.418 69.1337 161.93 68.2841 163.887 68.2841C164.52 68.2841 165 68.3661 165.328 68.5302V71.5536ZM179.373 87.6552C179.186 87.2802 179.033 86.6122 178.916 85.6513C177.404 87.2216 175.6 88.0067 173.502 88.0067C171.627 88.0067 170.086 87.4794 168.879 86.4247C167.684 85.3583 167.086 84.0106 167.086 82.3817C167.086 80.4013 167.836 78.8661 169.336 77.7763C170.848 76.6747 172.969 76.1239 175.699 76.1239H178.863V74.6298C178.863 73.4931 178.523 72.5907 177.844 71.9227C177.164 71.2431 176.162 70.9032 174.838 70.9032C173.678 70.9032 172.705 71.1962 171.92 71.7821C171.135 72.3681 170.742 73.077 170.742 73.9091H167.473C167.473 72.9599 167.807 72.0458 168.475 71.1669C169.154 70.2763 170.068 69.5731 171.217 69.0575C172.377 68.5419 173.648 68.2841 175.031 68.2841C177.223 68.2841 178.939 68.8349 180.182 69.9364C181.424 71.0263 182.068 72.5321 182.115 74.454V83.2079C182.115 84.954 182.338 86.3427 182.783 87.3739V87.6552H179.373ZM173.977 85.1767C174.996 85.1767 175.963 84.913 176.877 84.3856C177.791 83.8583 178.453 83.1727 178.863 82.329V78.4267H176.314C172.33 78.4267 170.338 79.5927 170.338 81.9247C170.338 82.9442 170.678 83.7411 171.357 84.3153C172.037 84.8895 172.91 85.1767 173.977 85.1767ZM191.625 64.0302V68.6356H195.176V71.1493H191.625V82.9442C191.625 83.7059 191.783 84.2802 192.1 84.6669C192.416 85.0419 192.955 85.2294 193.717 85.2294C194.092 85.2294 194.607 85.1591 195.264 85.0184V87.6552C194.408 87.8895 193.576 88.0067 192.768 88.0067C191.314 88.0067 190.219 87.5673 189.48 86.6884C188.742 85.8095 188.373 84.5614 188.373 82.9442V71.1493H184.91V68.6356H188.373V64.0302H191.625ZM197.777 77.9696C197.777 76.1063 198.141 74.4306 198.867 72.9423C199.605 71.454 200.625 70.3056 201.926 69.497C203.238 68.6884 204.732 68.2841 206.408 68.2841C208.998 68.2841 211.09 69.1806 212.684 70.9735C214.289 72.7665 215.092 75.1513 215.092 78.1278V78.3563C215.092 80.2079 214.734 81.872 214.02 83.3485C213.316 84.8134 212.303 85.9559 210.979 86.7763C209.666 87.5966 208.154 88.0067 206.443 88.0067C203.865 88.0067 201.773 87.1102 200.168 85.3173C198.574 83.5243 197.777 81.1513 197.777 78.1981V77.9696ZM201.047 78.3563C201.047 80.4657 201.533 82.1591 202.506 83.4364C203.49 84.7138 204.803 85.3524 206.443 85.3524C208.096 85.3524 209.408 84.7079 210.381 83.4188C211.354 82.1181 211.84 80.3017 211.84 77.9696C211.84 75.8837 211.342 74.1962 210.346 72.9071C209.361 71.6063 208.049 70.9559 206.408 70.9559C204.803 70.9559 203.508 71.5946 202.523 72.872C201.539 74.1493 201.047 75.9774 201.047 78.3563ZM228.363 71.5536C227.871 71.4716 227.338 71.4306 226.764 71.4306C224.631 71.4306 223.184 72.3388 222.422 74.1552V87.6552H219.17V68.6356H222.334L222.387 70.8329C223.453 69.1337 224.965 68.2841 226.922 68.2841C227.555 68.2841 228.035 68.3661 228.363 68.5302V71.5536Z" fill="black"/>
<rect x="50" y="195" width="200" height="60" rx="6" fill="#DE6D77"/>
<path d="M107.268 211.061L115.635 231.944L124.002 211.061H128.379V236.655H125.004V226.688L125.32 215.931L116.918 236.655H114.334L105.949 215.983L106.283 226.688V236.655H102.908V211.061H107.268ZM132.967 226.97C132.967 225.106 133.33 223.431 134.057 221.942C134.795 220.454 135.814 219.306 137.115 218.497C138.428 217.688 139.922 217.284 141.598 217.284C144.188 217.284 146.279 218.181 147.873 219.974C149.479 221.766 150.281 224.151 150.281 227.128V227.356C150.281 229.208 149.924 230.872 149.209 232.349C148.506 233.813 147.492 234.956 146.168 235.776C144.855 236.597 143.344 237.007 141.633 237.007C139.055 237.007 136.963 236.11 135.357 234.317C133.764 232.524 132.967 230.151 132.967 227.198V226.97ZM136.236 227.356C136.236 229.466 136.723 231.159 137.695 232.436C138.68 233.714 139.992 234.352 141.633 234.352C143.285 234.352 144.598 233.708 145.57 232.419C146.543 231.118 147.029 229.302 147.029 226.97C147.029 224.884 146.531 223.196 145.535 221.907C144.551 220.606 143.238 219.956 141.598 219.956C139.992 219.956 138.697 220.595 137.713 221.872C136.729 223.149 136.236 224.977 136.236 227.356ZM153.568 226.987C153.568 224.069 154.26 221.725 155.643 219.956C157.025 218.175 158.836 217.284 161.074 217.284C163.301 217.284 165.064 218.046 166.365 219.569V209.655H169.617V236.655H166.629L166.471 234.616C165.17 236.21 163.359 237.007 161.039 237.007C158.836 237.007 157.037 236.104 155.643 234.3C154.26 232.495 153.568 230.14 153.568 227.233V226.987ZM156.82 227.356C156.82 229.513 157.266 231.2 158.156 232.419C159.047 233.638 160.277 234.247 161.848 234.247C163.91 234.247 165.416 233.321 166.365 231.47V222.733C165.393 220.94 163.898 220.044 161.883 220.044C160.289 220.044 159.047 220.659 158.156 221.89C157.266 223.12 156.82 224.942 156.82 227.356ZM182.572 237.007C179.994 237.007 177.896 236.163 176.279 234.475C174.662 232.776 173.854 230.509 173.854 227.673V227.075C173.854 225.188 174.211 223.507 174.926 222.03C175.652 220.542 176.66 219.382 177.949 218.55C179.25 217.706 180.656 217.284 182.168 217.284C184.641 217.284 186.562 218.099 187.934 219.727C189.305 221.356 189.99 223.688 189.99 226.724V228.077H177.105C177.152 229.952 177.697 231.47 178.74 232.63C179.795 233.778 181.131 234.352 182.748 234.352C183.896 234.352 184.869 234.118 185.666 233.649C186.463 233.181 187.16 232.559 187.758 231.786L189.744 233.333C188.15 235.782 185.76 237.007 182.572 237.007ZM182.168 219.956C180.855 219.956 179.754 220.436 178.863 221.397C177.973 222.347 177.422 223.683 177.211 225.405H186.738V225.159C186.645 223.507 186.199 222.229 185.402 221.327C184.605 220.413 183.527 219.956 182.168 219.956ZM197.303 236.655H194.051V209.655H197.303V236.655Z" fill="black"/>
<path d="M148.939 177.061C149.525 177.646 150.475 177.646 151.061 177.061L160.607 167.515C161.192 166.929 161.192 165.979 160.607 165.393C160.021 164.808 159.071 164.808 158.485 165.393L150 173.879L141.515 165.393C140.929 164.808 139.979 164.808 139.393 165.393C138.808 165.979 138.808 166.929 139.393 167.515L148.939 177.061ZM148.5 125V176H151.5V125H148.5Z" fill="black"/>
<path d="M148.939 325.061C149.525 325.646 150.475 325.646 151.061 325.061L160.607 315.515C161.192 314.929 161.192 313.979 160.607 313.393C160.021 312.808 159.071 312.808 158.485 313.393L150 321.879L141.515 313.393C140.929 312.808 139.979 312.808 139.393 313.393C138.808 313.979 138.808 314.929 139.393 315.515L148.939 325.061ZM148.5 273V324H151.5V273H148.5Z" fill="black"/>
</svg>
