<svg width="408" height="417" viewBox="0 0 408 417" fill="none" xmlns="http://www.w3.org/2000/svg">
<rect width="408" height="417" fill="white"/>
<rect x="121" y="28" width="74" height="71" rx="10" fill="#65B0ED"/>
<rect x="26.5" y="174.5" width="65" height="62" rx="5.5" fill="#65B0ED" stroke="#99C27C" stroke-width="9" stroke-linejoin="round"/>
<rect x="167" y="170" width="74" height="71" rx="10" fill="#65B0ED"/>
<rect x="316.5" y="174.5" width="65" height="62" rx="5.5" fill="#65B0ED" stroke="#99C27C" stroke-width="9" stroke-linejoin="round"/>
<rect x="88.5" y="316.5" width="65" height="62" rx="5.5" fill="#65B0ED" stroke="#99C27C" stroke-width="9" stroke-linejoin="round"/>
<rect x="199.5" y="316.5" width="65" height="62" rx="5.5" fill="#65B0ED" stroke="#99C27C" stroke-width="9" stroke-linejoin="round"/>
<rect x="310.5" y="316.5" width="65" height="62" rx="5.5" fill="#65B0ED" stroke="#99C27C" stroke-width="9" stroke-linejoin="round"/>
<path d="M59.2914 170.406L62.5584 165.646L56.8024 165.197L59.2914 170.406ZM157.791 99.4064C157.791 107.964 152.225 113.92 143.538 118.673C134.846 123.429 123.173 126.898 111.223 130.526C99.3032 134.145 87.1176 137.921 77.5132 143.292C67.903 148.666 60.7836 155.691 59.1475 165.846L60.1347 166.005C61.701 156.283 68.5141 149.47 78.0013 144.165C87.4943 138.856 99.5711 135.109 111.513 131.483C123.425 127.866 135.214 124.367 144.018 119.55C152.828 114.73 158.791 108.51 158.791 99.4064L157.791 99.4064Z" fill="black"/>
<path d="M121.5 312L124.716 307.205L118.955 306.818L121.5 312ZM206.083 241.179C206.083 249.774 201.281 255.716 193.844 260.435C186.386 265.167 176.37 268.611 166.097 272.219C155.855 275.815 145.371 279.572 137.105 284.931C128.824 290.3 122.713 297.315 121.307 307.439L122.297 307.576C123.651 297.836 129.517 291.043 137.65 285.77C145.798 280.487 156.164 276.767 166.428 273.162C176.66 269.569 186.804 266.087 194.38 261.279C201.978 256.458 207.083 250.245 207.083 241.179L206.083 241.179Z" fill="black"/>
<path d="M187 249L182.834 252.997L188.378 254.606L187 249ZM185.32 253.06C184.166 254.92 182.197 256.562 179.576 258.076C176.959 259.588 173.731 260.951 170.103 262.271C166.476 263.592 162.471 264.862 158.3 266.195C154.134 267.526 149.806 268.918 145.552 270.478C137.052 273.593 128.8 277.393 122.669 282.759C116.52 288.141 112.5 295.104 112.5 304.5L113.5 304.5C113.5 295.44 117.357 288.737 123.328 283.512C129.316 278.27 137.426 274.522 145.896 271.417C150.127 269.865 154.437 268.479 158.605 267.147C162.769 265.817 166.796 264.54 170.445 263.211C174.093 261.883 177.384 260.497 180.076 258.942C182.763 257.389 184.892 255.647 186.17 253.588L185.32 253.06Z" fill="#333333"/>
<path d="M140.5 106.5L136.132 110.275L141.585 112.171L140.5 106.5ZM138.621 110.454C137.228 112.333 134.823 114.001 131.609 115.544C128.404 117.082 124.445 118.472 119.998 119.818C115.553 121.163 110.639 122.459 105.524 123.817C100.414 125.173 95.106 126.59 89.8883 128.173C79.4624 131.336 69.346 135.176 61.8299 140.569C54.2985 145.972 49.3335 152.97 49.3335 162.424L50.3335 162.424C50.3335 153.39 55.0524 146.662 62.4129 141.381C69.7887 136.089 79.7723 132.287 90.1786 129.13C95.3772 127.553 100.669 126.14 105.781 124.783C110.89 123.427 115.822 122.126 120.288 120.775C124.752 119.424 128.768 118.017 132.042 116.445C135.308 114.878 137.887 113.123 139.424 111.049L138.621 110.454Z" fill="#333333"/>
<path d="M180.651 104.354L180.782 110.126L185.715 107.126L180.651 104.354ZM182.68 108.59C185.399 110.71 190.228 112.518 196.507 114.15C202.808 115.787 210.645 117.266 219.44 118.692C228.237 120.119 238.005 121.496 248.17 122.929C258.337 124.362 268.903 125.852 279.304 127.504C300.114 130.81 320.226 134.764 335.128 140.21C342.581 142.934 348.695 146.019 352.937 149.556C357.173 153.089 359.5 157.035 359.5 161.5L360.5 161.5C360.5 156.64 357.953 152.438 353.577 148.788C349.207 145.144 342.97 142.012 335.472 139.271C320.471 133.789 300.274 129.823 279.461 126.517C269.05 124.863 258.475 123.372 248.309 121.939C238.142 120.506 228.385 119.13 219.6 117.705C210.814 116.28 203.014 114.807 196.759 113.182C190.482 111.55 185.835 109.782 183.295 107.802L182.68 108.59Z" fill="#333333"/>
<path d="M157.5 118.5L155.371 123.867L161.083 123.027L157.5 118.5ZM157.678 123.105C158.947 127.111 161.875 129.925 165.457 132.318C167.249 133.515 169.219 134.616 171.244 135.71C173.275 136.808 175.358 137.897 177.406 139.082C181.5 141.452 185.392 144.175 188.264 147.987C191.127 151.787 193 156.702 193 163.5L194 163.5C194 156.499 192.065 151.37 189.063 147.385C186.07 143.413 182.04 140.609 177.907 138.217C175.842 137.021 173.735 135.92 171.719 134.83C169.698 133.738 167.763 132.656 166.013 131.486C162.51 129.146 159.801 126.494 158.631 122.803L157.678 123.105Z" fill="#333333"/>
<path d="M225.833 247.924L225.336 253.676L230.566 251.23L225.833 247.924ZM227.384 252.351C229.464 254.447 233.034 256.226 237.603 257.823C242.188 259.426 247.849 260.868 254.171 262.258C260.495 263.647 267.497 264.988 274.766 266.384C282.038 267.781 289.581 269.234 296.998 270.851C311.841 274.087 326.136 277.971 336.711 283.345C347.305 288.728 354 295.516 354 304.5L355 304.5C355 294.924 347.844 287.881 337.164 282.454C326.466 277.017 312.063 273.112 297.211 269.874C289.78 268.254 282.226 266.799 274.955 265.402C267.681 264.005 260.694 262.667 254.386 261.281C248.076 259.894 242.462 258.462 237.933 256.879C233.388 255.29 230.004 253.572 228.094 251.646L227.384 252.351Z" fill="#333333"/>
<path d="M202.833 261.924L200.865 267.351L206.549 266.342L202.833 261.924ZM203.151 266.529C204.146 269.191 205.959 271.408 208.059 273.614C210.182 275.842 212.568 278.03 214.867 280.731C219.415 286.077 223.5 293.313 223.5 306L224.5 306C224.5 293.047 220.311 285.587 215.628 280.083C213.311 277.359 210.842 275.085 208.784 272.924C206.704 270.741 205.009 268.644 204.088 266.179L203.151 266.529Z" fill="#333333"/>
<path d="M207.083 241.179C207.083 240.903 206.859 240.679 206.583 240.679C206.307 240.679 206.083 240.903 206.083 241.179L207.083 241.179ZM233.5 312L236.279 306.94L230.507 307.063L233.5 312ZM206.083 241.179C206.083 250.071 207.662 256.227 210.08 261.079C212.493 265.919 215.73 269.431 218.966 273.023C222.207 276.621 225.462 280.314 228.025 285.565C230.586 290.812 232.469 297.645 232.904 307.518L233.903 307.474C233.463 297.49 231.556 290.518 228.924 285.126C226.294 279.738 222.953 275.955 219.709 272.354C216.458 268.745 213.318 265.331 210.975 260.632C208.638 255.944 207.083 249.946 207.083 241.179L206.083 241.179Z" fill="black"/>
<path d="M207.083 241.179C207.083 240.903 206.859 240.679 206.583 240.679C206.307 240.679 206.083 240.903 206.083 241.179L207.083 241.179ZM349 312L351.313 306.71L345.575 307.352L349 312ZM206.083 241.179C206.083 245.775 208.249 249.63 211.973 252.917C215.687 256.195 220.972 258.933 227.288 261.327C239.92 266.115 256.843 269.586 273.993 273.184C291.168 276.788 308.578 280.52 322.268 285.826C335.994 291.147 345.777 297.975 348.013 307.644L348.987 307.419C346.627 297.211 336.373 290.222 322.629 284.894C308.848 279.552 291.353 275.805 274.198 272.205C257.017 268.601 240.184 265.146 227.643 260.392C221.372 258.016 216.217 255.329 212.635 252.168C209.065 249.016 207.083 245.415 207.083 241.179L206.083 241.179Z" fill="black"/>
<path d="M204 170L206.704 164.899L200.935 165.108L204 170ZM157.792 99.4065C157.792 108.353 160.494 114.532 164.61 119.375C168.705 124.192 174.19 127.667 179.681 131.229C185.194 134.806 190.732 138.48 195.086 143.713C199.426 148.93 202.605 155.718 203.339 165.546L204.336 165.471C203.587 155.442 200.332 148.455 195.855 143.073C191.391 137.708 185.727 133.96 180.225 130.39C174.7 126.806 169.354 123.41 165.372 118.727C161.412 114.069 158.792 108.12 158.792 99.4065L157.792 99.4065Z" fill="black"/>
<path d="M351.5 170L353.605 164.624L347.897 165.489L351.5 170ZM157.792 99.4065C157.792 104.069 160.772 107.926 165.782 111.181C170.796 114.437 177.938 117.157 186.492 119.537C203.607 124.297 226.543 127.738 249.82 131.311C273.117 134.886 296.762 138.595 315.359 143.888C324.658 146.535 332.666 149.571 338.727 153.168C344.794 156.769 348.847 160.894 350.348 165.694L351.302 165.395C349.695 160.256 345.399 155.965 339.237 152.308C333.069 148.647 324.967 145.583 315.633 142.926C296.964 137.612 273.253 133.895 249.971 130.322C226.669 126.746 203.803 123.314 186.76 118.573C178.236 116.202 171.211 113.515 166.327 110.342C161.44 107.168 158.792 103.576 158.792 99.4065L157.792 99.4065Z" fill="black"/>
<path d="M163 192L158 189.113V194.887L163 192ZM101 192.5H158.5V191.5H101V192.5Z" fill="#C4C4C4"/>
<path d="M87 317L86.9862 305.453L76.9931 311.238L87 317ZM42.1346 241.501L81.6252 309.712L83.3561 308.71L43.8654 240.499L42.1346 241.501Z" fill="#99C27C"/>
<path d="M60 247L60.0656 252.773L65.0325 249.83L60 247ZM61.864 251.126L91.5699 301.255L92.4301 300.745L62.7243 250.616L61.864 251.126Z" fill="#99C27C"/>
<path d="M362 301L365.014 296.076L359.242 295.928L362 301ZM362.5 261.987L361.616 296.489L362.615 296.514L363.5 262.013L362.5 261.987Z" fill="#99C27C"/>
<path d="M373 241L366.809 250.747L378.346 251.235L373 241ZM371.621 249.95L369.001 311.958L370.999 312.042L373.619 250.034L371.621 249.95Z" fill="#99C27C"/>
<path d="M101 202L106 204.887V199.113L101 202ZM105.5 202.5H163V201.5H105.5V202.5Z" fill="#C4C4C4"/>
<path d="M246 202L251 204.887V199.113L246 202ZM250.5 202.5H308V201.5H250.5V202.5Z" fill="#C4C4C4"/>
<path d="M308 192L303 189.113V194.887L308 192ZM246 192.5H303.5V191.5H246V192.5Z" fill="#C4C4C4"/>
<path d="M191 333L186 330.113V335.887L191 333ZM163 333.5H186.5V332.5H163V333.5Z" fill="#C4C4C4"/>
<path d="M163 343L168 345.887V340.113L163 343ZM167.5 343.5H191V342.5H167.5V343.5Z" fill="#C4C4C4"/>
<path d="M195 363L185 357.226V368.774L195 363ZM158 364H186V362H158V364Z" fill="#99C27C"/>
<path d="M163 373L168 375.887V370.113L163 373ZM167.5 373.5H191V372.5H167.5V373.5Z" fill="#99C27C"/>
<path d="M306 363L296 357.226V368.774L306 363ZM269 364H297V362H269V364Z" fill="#99C27C"/>
<path d="M273 373L278 375.887V370.113L273 373ZM277.5 373.5H301V372.5H277.5V373.5Z" fill="#99C27C"/>
<path d="M273 343L278 345.887V340.113L273 343ZM277.5 343.5H301V342.5H277.5V343.5Z" fill="#C4C4C4"/>
<path d="M301 333L296 330.113V335.887L301 333ZM273 333.5H296.5V332.5H273V333.5Z" fill="#C4C4C4"/>
</svg>
