<svg width="531" height="521" viewBox="0 0 531 521" fill="none" xmlns="http://www.w3.org/2000/svg">
<path d="M0 0H531V521H0V0Z" fill="white"/>
<rect x="243" y="26" width="74" height="71" rx="10" fill="#65B0ED"/>
<rect x="148.5" y="172.5" width="65" height="62" rx="5.5" fill="#65B0ED" stroke="#99C27C" stroke-width="9" stroke-linejoin="round"/>
<rect x="289" y="168" width="74" height="71" rx="10" fill="#65B0ED"/>
<rect x="327.5" y="441.5" width="51" height="49" rx="5.5" fill="white" stroke="#99C27C" stroke-width="9"/>
<path d="M356.048 454.818V481H352.877V458.142H352.724L346.332 462.386V459.165L352.877 454.818H356.048Z" fill="black"/>
<rect x="31.5" y="179.5" width="51" height="49" rx="5.5" fill="white" stroke="#99C27C" stroke-width="9"/>
<path d="M56.5 219.358C54.5739 219.358 52.9332 218.834 51.5781 217.786C50.223 216.729 49.1875 215.199 48.4716 213.196C47.7557 211.185 47.3977 208.756 47.3977 205.909C47.3977 203.08 47.7557 200.663 48.4716 198.661C49.196 196.649 50.2358 195.115 51.5909 194.058C52.9545 192.993 54.5909 192.46 56.5 192.46C58.4091 192.46 60.0412 192.993 61.3963 194.058C62.7599 195.115 63.7997 196.649 64.5156 198.661C65.2401 200.663 65.6023 203.08 65.6023 205.909C65.6023 208.756 65.2443 211.185 64.5284 213.196C63.8125 215.199 62.777 216.729 61.4219 217.786C60.0668 218.834 58.4261 219.358 56.5 219.358ZM56.5 216.545C58.4091 216.545 59.892 215.625 60.9489 213.784C62.0057 211.943 62.5341 209.318 62.5341 205.909C62.5341 203.642 62.2912 201.712 61.8054 200.118C61.3281 198.524 60.6378 197.31 59.7344 196.474C58.8395 195.639 57.7614 195.222 56.5 195.222C54.608 195.222 53.1293 196.155 52.0639 198.021C50.9986 199.879 50.4659 202.509 50.4659 205.909C50.4659 208.176 50.7045 210.102 51.1818 211.688C51.6591 213.273 52.3452 214.479 53.2401 215.305C54.1435 216.132 55.2301 216.545 56.5 216.545Z" fill="black"/>
<rect x="438.5" y="172.5" width="65" height="62" rx="5.5" fill="#65B0ED" stroke="#99C27C" stroke-width="9" stroke-linejoin="round"/>
<rect x="210.5" y="314.5" width="65" height="62" rx="5.5" fill="#65B0ED" stroke="#99C27C" stroke-width="9" stroke-linejoin="round"/>
<mask id="path-11-inside-1_201_120" fill="white">
<path d="M236 450C236 440.572 236 435.858 238.929 432.929C241.858 430 246.572 430 256 430H279V501H256C246.572 501 241.858 501 238.929 498.071C236 495.142 236 490.428 236 481V450Z"/>
</mask>
<path d="M236 450C236 440.572 236 435.858 238.929 432.929C241.858 430 246.572 430 256 430H279V501H256C246.572 501 241.858 501 238.929 498.071C236 495.142 236 490.428 236 481V450Z" fill="#65B0ED"/>
<path d="M227 440C227 429.507 235.507 421 246 421H279V439H246C245.448 439 245 439.448 245 440H227ZM279 510H246C235.507 510 227 501.493 227 491H245C245 491.552 245.448 492 246 492H279V510ZM246 510C235.507 510 227 501.493 227 491V440C227 429.507 235.507 421 246 421V439C245.448 439 245 439.448 245 440V491C245 491.552 245.448 492 246 492V510ZM279 430V501V430Z" fill="#99C27C" mask="url(#path-11-inside-1_201_120)"/>
<mask id="path-13-inside-2_201_120" fill="white">
<path d="M427 430H450C459.428 430 464.142 430 467.071 432.929C470 435.858 470 440.572 470 450V481C470 490.428 470 495.142 467.071 498.071C464.142 501 459.428 501 450 501H427V430Z"/>
</mask>
<path d="M427 430H450C459.428 430 464.142 430 467.071 432.929C470 435.858 470 440.572 470 450V481C470 490.428 470 495.142 467.071 498.071C464.142 501 459.428 501 450 501H427V430Z" fill="#65B0ED"/>
<path d="M427 421H460C470.493 421 479 429.507 479 440H461C461 439.448 460.552 439 460 439H427V421ZM479 491C479 501.493 470.493 510 460 510H427V492H460C460.552 492 461 491.552 461 491H479ZM427 501V430V501ZM460 421C470.493 421 479 429.507 479 440V491C479 501.493 470.493 510 460 510V492C460.552 492 461 491.552 461 491V440C461 439.448 460.552 439 460 439V421Z" fill="#99C27C" mask="url(#path-13-inside-2_201_120)"/>
<rect x="432.5" y="314.5" width="65" height="62" rx="5.5" fill="#65B0ED" stroke="#99C27C" stroke-width="9" stroke-linejoin="round"/>
<path d="M181.291 168.406L184.558 163.646L178.802 163.197L181.291 168.406ZM279.791 97.4064C279.791 105.964 274.225 111.92 265.538 116.673C256.846 121.429 245.173 124.898 233.223 128.526C221.303 132.145 209.118 135.921 199.513 141.292C189.903 146.666 182.784 153.691 181.147 163.846L182.135 164.005C183.701 154.283 190.514 147.47 200.001 142.165C209.494 136.856 221.571 133.109 233.513 129.483C245.425 125.866 257.214 122.367 266.018 117.55C274.828 112.73 280.791 106.51 280.791 97.4064L279.791 97.4064Z" fill="black"/>
<path d="M56.5 174.5L60.1949 170.064L54.5055 169.082L56.5 174.5ZM279.791 97.4064C279.791 101.547 276.736 105.237 271.039 108.596C265.361 111.943 257.203 114.872 247.318 117.532C227.553 122.85 201.041 127.053 174.042 131.415C147.062 135.774 119.6 140.291 97.9919 146.236C87.1885 149.208 77.8221 152.544 70.7006 156.41C63.5934 160.268 58.6371 164.699 56.793 169.904L57.7356 170.238C59.4544 165.386 64.1398 161.109 71.1777 157.289C78.2015 153.476 87.4838 150.164 98.2572 147.2C119.803 141.272 147.207 136.764 174.202 132.402C201.179 128.044 227.751 123.832 247.577 118.498C257.488 115.831 265.751 112.874 271.547 109.457C277.322 106.053 280.791 102.102 280.791 97.4064L279.791 97.4064Z" fill="black"/>
<path d="M243.5 310L246.716 305.205L240.955 304.818L243.5 310ZM328.083 239.179C328.083 247.774 323.281 253.716 315.844 258.435C308.386 263.167 298.37 266.611 288.097 270.219C277.855 273.815 267.371 277.572 259.105 282.931C250.824 288.3 244.713 295.315 243.307 305.439L244.297 305.576C245.651 295.836 251.517 289.043 259.65 283.77C267.798 278.487 278.164 274.767 288.428 271.162C298.66 267.569 308.804 264.087 316.38 259.279C323.978 254.458 329.083 248.245 329.083 239.179L328.083 239.179Z" fill="black"/>
<path d="M329.083 239.179C329.083 238.903 328.859 238.679 328.583 238.679C328.307 238.679 328.083 238.903 328.083 239.179L329.083 239.179ZM353.5 435L356.376 429.994L350.603 430.006L353.5 435ZM328.083 239.179C328.083 269.432 329.606 288.407 331.906 301.886C334.207 315.375 337.283 323.349 340.364 331.577C343.439 339.787 346.523 348.262 348.876 362.803C351.23 377.356 352.855 397.993 352.991 430.514L353.991 430.51C353.854 397.962 352.229 377.268 349.863 362.644C347.494 348.009 344.385 339.463 341.301 331.226C338.223 323.008 335.175 315.108 332.891 301.717C330.606 288.316 329.083 269.404 329.083 239.179L328.083 239.179Z" fill="black"/>
<path d="M329.083 239.18C329.083 238.903 328.859 238.68 328.583 238.68C328.307 238.68 328.083 238.903 328.083 239.18L329.083 239.18ZM439.5 429L442.431 424.026L436.657 423.975L439.5 429ZM328.083 239.18C328.083 269.219 334.936 291.448 345.26 308.996C355.579 326.537 369.35 339.371 383.133 350.639C396.941 361.927 410.7 371.6 421.147 382.892C431.566 394.153 438.636 406.974 439.04 424.502L440.04 424.479C439.628 406.647 432.42 393.603 421.881 382.213C411.371 370.853 397.493 361.086 383.766 349.865C370.014 338.623 356.352 325.878 346.122 308.489C335.896 291.107 329.083 269.055 329.083 239.18L328.083 239.18Z" fill="black"/>
<path d="M329.083 239.18C329.083 238.903 328.859 238.68 328.583 238.68C328.307 238.68 328.083 238.903 328.083 239.18L329.083 239.18ZM270 430L273.156 425.166L267.391 424.849L270 430ZM328.083 239.18C328.083 299.004 314.773 327.802 300.857 350.482C286.926 373.188 272.25 389.933 269.747 425.475L270.745 425.545C273.226 390.307 287.719 373.808 301.71 351.005C315.717 328.175 329.083 299.197 329.083 239.18L328.083 239.18Z" fill="black"/>
<path d="M329.083 239.179C329.083 238.903 328.859 238.679 328.583 238.679C328.307 238.679 328.083 238.903 328.083 239.179L329.083 239.179ZM471 310L473.313 304.71L467.575 305.352L471 310ZM328.083 239.179C328.083 243.775 330.249 247.63 333.973 250.917C337.687 254.195 342.972 256.933 349.288 259.327C361.92 264.115 378.843 267.586 395.993 271.184C413.168 274.788 430.578 278.52 444.268 283.826C457.994 289.147 467.777 295.975 470.013 305.644L470.987 305.419C468.627 295.211 458.373 288.222 444.629 282.894C430.848 277.552 413.353 273.805 396.198 270.206C379.017 266.601 362.184 263.146 349.643 258.392C343.372 256.016 338.217 253.329 334.635 250.168C331.065 247.016 329.083 243.415 329.083 239.179L328.083 239.179Z" fill="black"/>
<path d="M326 168L328.704 162.899L322.935 163.108L326 168ZM279.792 97.4065C279.792 106.353 282.494 112.532 286.61 117.375C290.705 122.192 296.19 125.667 301.681 129.229C307.194 132.806 312.732 136.48 317.086 141.713C321.426 146.93 324.605 153.718 325.339 163.546L326.336 163.471C325.587 153.442 322.332 146.455 317.855 141.073C313.391 135.708 307.727 131.96 302.225 128.39C296.7 124.806 291.354 121.41 287.372 116.727C283.412 112.069 280.792 106.12 280.792 97.4065L279.792 97.4065Z" fill="black"/>
<path d="M473.5 168L475.605 162.624L469.897 163.489L473.5 168ZM279.792 97.4065C279.792 102.07 282.772 105.926 287.782 109.181C292.796 112.437 299.938 115.157 308.492 117.537C325.607 122.297 348.543 125.738 371.82 129.311C395.117 132.886 418.762 136.595 437.359 141.888C446.658 144.535 454.666 147.571 460.727 151.168C466.794 154.769 470.847 158.894 472.348 163.694L473.302 163.395C471.695 158.256 467.399 153.965 461.237 150.308C455.069 146.647 446.967 143.583 437.633 140.927C418.964 135.613 395.253 131.895 371.971 128.322C348.669 124.746 325.803 121.314 308.76 116.573C300.236 114.202 293.211 111.515 288.327 108.342C283.44 105.168 280.792 101.576 280.792 97.4065L279.792 97.4065Z" fill="black"/>
<path d="M218 308L217.906 296.453L207.953 302.308L218 308ZM177.138 240.507L212.575 300.75L214.299 299.736L178.862 239.493L177.138 240.507Z" fill="#99C27C"/>
<path d="M144 204L134 198.226V209.774L144 204ZM87 205H135V203H87V205Z" fill="#99C27C"/>
<path d="M495 239L487.724 247.966L499.127 249.784L495 239ZM492.596 247.73L483.012 307.843L484.988 308.157L494.571 248.045L492.596 247.73Z" fill="#99C27C"/>
<path d="M258 430L259.171 418.513L248.637 423.242L258 430ZM235.088 381.41L253.401 422.199L255.226 421.38L236.912 380.59L235.088 381.41Z" fill="#99C27C"/>
<path d="M323 466L313 460.226V471.774L323 466ZM279 467H314V465H279V467Z" fill="#99C27C"/>
<path d="M427 466L417 460.226V471.774L427 466ZM383 467H418V465H383V467Z" fill="#99C27C"/>
<path d="M462 381L453.855 389.185L465.016 392.146L462 381ZM458.726 389.443L448.033 429.744L449.967 430.256L460.659 389.955L458.726 389.443Z" fill="#99C27C"/>
</svg>
